<?xml version="1.0" encoding="UTF-8"?>
<!DOCTYPE svg PUBLIC "-//W3C//DTD SVG 1.1//EN" "http://www.w3.org/Graphics/SVG/1.1/DTD/svg11.dtd">
<!-- Creator: CorelDRAW X8 -->
<svg xmlns="http://www.w3.org/2000/svg" xml:space="preserve" width="271.129mm" height="69.1848mm" version="1.1" style="shape-rendering:geometricPrecision; text-rendering:geometricPrecision; image-rendering:optimizeQuality; fill-rule:evenodd; clip-rule:evenodd"
viewBox="0 0 27113 6918"
 xmlns:xlink="http://www.w3.org/1999/xlink">
 <defs>
  <style type="text/css">
   <![CDATA[
    .fil0 {fill:#606062}
    .fil2 {fill:#A8CF45;fill-rule:nonzero}
    .fil1 {fill:#00AFEF;fill-rule:nonzero}
   ]]>
  </style>
 </defs>
 <g id="Camada_x0020_1">
  <metadata id="CorelCorpID_0Corel-Layer"/>
  <g id="_2375531098800">
   <g>
    <g>
     <path class="fil0" d="M23014 722c0,67 55,122 122,122 68,0 863,-499 997,-582 223,-138 35,-262 -3,-262 -88,0 -766,442 -871,505 -107,64 -245,119 -245,217z"/>
     <path class="fil0" d="M23014 6782c0,102 94,136 109,136 88,0 766,-442 870,-504 49,-29 92,-55 145,-87 198,-118 66,-253 -21,-253 -68,0 -863,500 -997,583 -39,24 -106,71 -106,125z"/>
     <path class="fil0" d="M26282 3446c0,55 309,821 356,937 19,46 97,372 265,228 99,-84 2,-217 -82,-438l-284 -724c-24,-59 -45,-113 -121,-118 -74,-5 -134,55 -134,115z"/>
     <path class="fil0" d="M26255 5666c216,0 122,-293 122,-504l1 -409c-2,-73 -15,-103 -14,-190 0,-91 30,-279 -124,-283 -157,-3 -121,205 -121,282 0,98 19,995 37,1039 17,40 50,65 99,65z"/>
     <path class="fil0" d="M20303 2383c0,53 103,295 129,362 47,124 95,245 142,362 49,123 91,238 142,362 90,222 255,92 255,4 0,-55 -309,-822 -356,-938 -25,-60 -103,-367 -265,-228 -13,11 -47,63 -47,76z"/>
     <path class="fil0" d="M25628 1662c0,105 125,146 241,208 52,28 90,51 141,77 148,77 688,395 735,395 128,0 225,-162 19,-263 -122,-60 -936,-527 -1002,-532 -64,-5 -134,43 -134,115z"/>
     <path class="fil0" d="M21910 6415c0,199 199,116 313,94l749 -150c116,-23 300,-27 300,-162 0,-215 -322,-84 -430,-63l-669 134c-103,21 -263,22 -263,147z"/>
     <path class="fil0" d="M25274 6333c0,93 173,233 261,-39 43,-134 90,-271 136,-409 45,-135 92,-262 140,-405 44,-133 163,-359 -74,-359 -54,0 -86,59 -100,103 -21,60 -35,90 -55,150 -54,167 -308,888 -308,959z"/>
     <path class="fil0" d="M24185 6755c0,84 116,213 253,35l617 -772c67,-85 83,-83 83,-189 0,-59 -104,-101 -152,-85 -81,27 -588,704 -704,849 -32,40 -97,101 -97,162z"/>
     <path class="fil0" d="M21488 1798c78,0 100,-23 125,-93 68,-196 366,-1044 366,-1119 0,-89 -170,-239 -261,39l-343 1020c-17,75 22,153 113,153z"/>
     <path class="fil0" d="M22115 1049c0,128 99,139 150,124 85,-26 488,-573 591,-704 41,-53 75,-93 115,-144 32,-40 97,-101 97,-162 0,-79 -115,-214 -253,-35l-514 644c-38,47 -66,83 -103,129 -30,37 -83,86 -83,148z"/>
     <path class="fil0" d="M23981 722c0,38 10,57 29,79 76,87 208,22 401,-17l669 -134c182,-36 262,-21 262,-187 0,-50 -73,-92 -120,-91 -33,1 -145,28 -192,38l-749 150c-116,23 -300,26 -300,162z"/>
     <path class="fil0" d="M20372 4712c0,87 199,175 286,218l669 365c43,26 127,78 175,79 88,0 220,-135 23,-249 -55,-32 -94,-50 -150,-82 -159,-89 -831,-467 -881,-467 -20,0 -72,26 -85,38 -23,21 -37,58 -37,98z"/>
     <path class="fil0" d="M20140 3555c0,69 49,108 85,146l648 741c101,127 261,145 261,-57 0,-44 -361,-427 -418,-494l-317 -364c-139,-184 -259,-59 -259,28z"/>
     <path class="fil0" d="M24893 1021c0,156 63,147 297,180 126,17 254,40 390,60l575 82c61,-8 114,-60 114,-117 0,-127 -135,-130 -236,-146l-1031 -154c-41,0 -109,56 -109,95z"/>
     <path class="fil0" d="M20998 1253c-216,0 -122,293 -122,503l22 796c41,126 204,99 231,3l-16 -995c-15,-95 43,-307 -115,-307z"/>
     <path class="fil0" d="M20984 5693c0,150 250,150 449,178 71,9 300,86 300,-97 0,-148 -231,-140 -367,-163 -68,-12 -164,-30 -237,-35 -84,-6 -145,55 -145,117z"/>
     <path class="fil0" d="M26119 2492c0,75 8,84 85,160 93,91 235,317 337,317 67,0 123,-55 123,-123 0,-57 -48,-99 -80,-138l-204 -231c-130,-165 -261,-87 -261,15z"/>
     <path class="fil0" d="M21815 5815c0,39 22,85 46,104 18,14 499,163 499,-22 0,-122 -24,-136 -167,-160 -115,-19 -286,-65 -344,4 -13,16 -34,52 -34,74z"/>
     <path class="fil0" d="M26691 3146c0,70 13,70 50,113 61,73 174,227 249,227 68,0 123,-55 123,-122 0,-86 -233,-327 -272,-327 -67,0 -150,3 -150,109z"/>
    </g>
    <g>
     <path class="fil0" d="M23129 1383c1,51 44,93 95,92 51,-1 650,-390 752,-455 168,-107 23,-199 -5,-199 -68,1 -579,345 -657,394 -82,51 -186,94 -185,168z"/>
     <path class="fil0" d="M23198 5995c1,77 73,102 84,102 68,-1 578,-345 657,-394 37,-22 69,-42 110,-67 149,-93 46,-194 -20,-193 -52,1 -651,390 -752,455 -29,19 -80,55 -79,97z"/>
     <path class="fil0" d="M25647 3419c1,42 245,621 282,709 14,35 78,282 204,171 74,-65 -1,-166 -68,-333l-224 -547c-19,-45 -36,-86 -93,-89 -57,-3 -102,43 -101,89z"/>
     <path class="fil0" d="M25652 5108c164,-2 89,-224 87,-384l-4 -312c-3,-55 -13,-78 -13,-144 -1,-69 20,-213 -98,-214 -119,-1 -90,157 -89,216 1,75 26,757 41,790 13,31 38,49 76,48z"/>
     <path class="fil0" d="M21086 2678c0,40 81,223 101,274 38,94 76,185 113,274 39,93 72,180 112,274 71,168 195,67 194,0 -1,-42 -245,-622 -282,-710 -19,-45 -82,-278 -204,-170 -10,8 -34,48 -34,58z"/>
     <path class="fil0" d="M25129 2069c2,80 97,110 186,156 40,20 69,37 108,57 114,56 528,293 564,292 97,-1 169,-126 11,-201 -93,-44 -718,-390 -768,-393 -49,-3 -101,34 -101,89z"/>
     <path class="fil0" d="M22354 5727c3,152 152,87 239,69l568 -123c89,-19 229,-24 227,-127 -2,-163 -246,-60 -328,-42l-508 109c-78,17 -199,20 -198,114z"/>
     <path class="fil0" d="M24913 5627c1,71 134,175 198,-33 31,-102 65,-206 99,-312 32,-103 67,-200 101,-310 33,-102 121,-275 -59,-272 -42,0 -65,46 -76,79 -15,46 -25,69 -40,115 -39,127 -224,679 -223,733z"/>
     <path class="fil0" d="M24089 5961c1,64 90,160 193,24l460 -595c51,-65 63,-64 62,-145 -1,-45 -80,-76 -117,-63 -61,22 -440,543 -526,655 -24,30 -73,77 -72,124z"/>
     <path class="fil0" d="M21981 2219c59,-1 76,-18 93,-72 50,-150 267,-798 266,-856 -1,-67 -132,-179 -198,33l-249 780c-12,57 19,116 88,115z"/>
     <path class="fil0" d="M22449 1642c1,98 77,105 116,93 64,-21 365,-442 441,-542 31,-41 56,-72 86,-111 24,-31 73,-78 72,-124 -1,-60 -89,-162 -193,-24l-383 496c-29,35 -50,64 -77,99 -23,28 -63,67 -62,113z"/>
     <path class="fil0" d="M23865 1372c0,29 8,43 23,60 59,65 159,14 305,-17l508 -110c138,-29 199,-19 197,-145 0,-38 -57,-69 -92,-68 -26,1 -110,23 -146,31l-568 122c-89,19 -229,24 -227,127z"/>
     <path class="fil0" d="M21164 4450c1,65 153,131 220,162l514 270c33,20 97,58 134,58 66,0 165,-105 14,-190 -42,-23 -72,-37 -115,-60 -122,-66 -637,-346 -675,-345 -15,0 -55,20 -64,29 -18,17 -28,45 -28,76z"/>
     <path class="fil0" d="M20975 3571c0,53 38,83 66,111l502 556c78,96 200,108 198,-46 -1,-34 -280,-321 -324,-371l-246 -273c-107,-139 -197,-42 -196,23z"/>
     <path class="fil0" d="M24563 1590c1,119 49,111 228,133 95,12 193,28 297,41l439 56c46,-7 85,-46 84,-90 -1,-97 -104,-97 -180,-109l-787 -105c-31,1 -82,44 -81,74z"/>
     <path class="fil0" d="M21601 1810c-164,3 -89,224 -87,385l26 605c33,95 156,73 176,0l-24 -757c-12,-73 29,-235 -91,-233z"/>
     <path class="fil0" d="M21641 5189c2,114 192,111 344,130 54,6 229,62 227,-77 -1,-113 -177,-104 -281,-120 -52,-8 -125,-21 -181,-24 -64,-4 -109,44 -109,91z"/>
     <path class="fil0" d="M25512 2695c1,57 7,64 67,121 71,68 182,238 260,237 51,-1 92,-43 91,-95 0,-43 -37,-74 -62,-104l-158 -174c-101,-123 -199,-62 -198,15z"/>
     <path class="fil0" d="M22275 5273c0,29 18,64 36,78 14,10 381,119 379,-22 -1,-93 -19,-104 -129,-120 -87,-13 -218,-47 -261,6 -10,13 -25,40 -25,58z"/>
     <path class="fil0" d="M25955 3186c0,53 11,53 39,86 47,55 135,171 192,170 52,-1 93,-44 92,-95 -1,-65 -181,-246 -211,-245 -50,0 -114,4 -112,84z"/>
    </g>
    <g>
     <path class="fil0" d="M23935 2082c0,34 -28,62 -62,62 -34,0 -434,-252 -502,-294 -112,-69 -17,-131 2,-131 44,0 386,222 438,254 54,32 124,60 124,109z"/>
     <path class="fil0" d="M23935 5131c0,51 -48,69 -55,69 -45,0 -386,-223 -438,-254 -24,-15 -46,-28 -73,-44 -100,-59 -33,-127 11,-127 34,0 434,251 501,293 20,12 54,36 54,63z"/>
     <path class="fil0" d="M22290 3452c0,28 -155,414 -179,472 -9,23 -49,187 -133,115 -50,-42 -1,-110 41,-221l143 -364c12,-30 23,-57 61,-59 37,-3 67,27 67,57z"/>
     <path class="fil0" d="M22304 4569c-109,0 -62,-147 -61,-253l-1 -206c1,-36 8,-52 7,-96 0,-45 -15,-140 63,-142 78,-2 60,103 60,142 0,49 -9,501 -18,523 -9,20 -25,32 -50,32z"/>
     <path class="fil0" d="M25298 2918c0,26 -51,148 -64,182 -24,62 -48,123 -72,182 -24,62 -46,120 -71,182 -45,112 -128,46 -128,2 0,-28 155,-413 179,-472 12,-30 51,-184 133,-115 7,6 23,32 23,39z"/>
     <path class="fil0" d="M22619 2555c0,53 -63,73 -121,105 -26,14 -45,25 -71,39 -74,38 -346,198 -370,198 -64,0 -113,-81 -9,-132 61,-30 471,-265 504,-268 32,-3 67,22 67,58z"/>
     <path class="fil0" d="M24490 4946c0,100 -100,59 -157,48l-377 -76c-59,-12 -151,-13 -151,-81 0,-108 162,-43 216,-32l337 68c52,10 132,11 132,73z"/>
     <path class="fil0" d="M22797 4905c0,47 -86,117 -131,-20 -22,-67 -45,-136 -68,-205 -23,-68 -46,-132 -70,-204 -23,-67 -83,-181 36,-181 28,0 44,30 51,52 10,30 17,45 27,76 28,83 155,446 155,482z"/>
     <path class="fil0" d="M23346 5117c0,43 -59,107 -128,18l-310 -388c-34,-43 -42,-42 -42,-95 0,-30 52,-51 76,-43 41,13 296,354 355,427 16,20 49,51 49,81z"/>
     <path class="fil0" d="M24702 2623c-39,0 -50,-11 -62,-47 -35,-98 -184,-525 -184,-563 0,-44 85,-120 131,20l172 513c9,38 -11,77 -57,77z"/>
     <path class="fil0" d="M24387 2246c0,65 -50,70 -76,63 -42,-13 -245,-288 -297,-354 -21,-27 -37,-47 -58,-73 -16,-20 -49,-50 -49,-81 0,-40 58,-108 128,-18l258 324c19,24 34,42 52,65 15,19 42,44 42,74z"/>
     <path class="fil0" d="M23448 2082c0,19 -5,29 -15,40 -38,43 -104,11 -201,-9l-337 -67c-91,-18 -132,-11 -132,-94 0,-26 37,-47 61,-46 16,0 73,14 96,19l377 75c59,12 151,14 151,82z"/>
     <path class="fil0" d="M25264 4090c0,43 -100,88 -144,109l-337 184c-21,13 -64,39 -88,40 -44,0 -110,-68 -11,-126 27,-16 47,-25 75,-41 80,-45 418,-235 443,-235 10,0 37,13 43,19 12,11 19,29 19,50z"/>
     <path class="fil0" d="M25381 3507c0,35 -25,55 -43,74l-326 373c-51,64 -132,73 -132,-29 0,-22 182,-215 211,-249l159 -183c70,-92 131,-29 131,14z"/>
     <path class="fil0" d="M22989 2233c0,78 -32,74 -149,90 -64,9 -128,20 -196,30l-290 41c-31,-4 -57,-30 -57,-59 0,-64 68,-65 119,-73l518 -77c21,0 55,28 55,48z"/>
     <path class="fil0" d="M24949 2349c109,0 62,147 61,253l-11 401c-20,63 -102,50 -116,1l8 -500c8,-48 -21,-155 58,-155z"/>
     <path class="fil0" d="M24956 4583c0,75 -126,76 -226,89 -35,5 -151,44 -151,-48 0,-75 116,-70 185,-82 34,-6 82,-15 119,-18 42,-3 73,28 73,59z"/>
     <path class="fil0" d="M22372 2973c0,37 -3,42 -42,80 -47,46 -118,160 -170,160 -34,0 -62,-28 -62,-62 0,-29 25,-50 40,-70l103 -116c66,-83 131,-44 131,8z"/>
     <path class="fil0" d="M24538 4645c0,19 -11,42 -23,52 -9,7 -251,82 -251,-11 0,-62 12,-69 84,-81 58,-9 143,-33 173,2 6,8 17,26 17,38z"/>
     <path class="fil0" d="M22085 3302c0,35 -7,35 -25,57 -31,36 -88,114 -126,114 -34,0 -62,-28 -62,-62 0,-43 118,-164 137,-164 34,0 76,1 76,55z"/>
    </g>
   </g>
   <path class="fil1" d="M642 1556c0,89 -32,163 -95,223 -64,60 -142,90 -234,90 -92,0 -167,-32 -225,-98 -59,-65 -88,-144 -88,-236 0,-85 33,-158 98,-220 66,-62 141,-93 226,-93 95,0 172,32 231,95 58,64 87,144 87,239zm-85 3546l-467 0 0 -2442 467 0 0 2442zm3095 -1205c0,354 -125,658 -377,911 -251,253 -554,379 -907,379 -351,0 -653,-127 -906,-382 -253,-255 -379,-557 -379,-908 0,-361 124,-668 371,-921 248,-253 553,-379 914,-379 360,0 665,126 913,379 247,253 371,560 371,921zm-467 3c0,-235 -80,-436 -238,-604 -159,-169 -353,-253 -582,-253 -229,0 -425,84 -588,255 -161,170 -243,371 -243,602 0,227 82,425 246,591 165,167 359,250 585,250 229,0 423,-82 582,-248 158,-164 238,-362 238,-593zm1874 -794l-457 0 0 1996 -467 0 0 -1996 -255 0 0 -446 255 0 0 -929 467 0 0 929 457 0 0 446zm2304 1996l-467 0 0 -1470c0,-213 -34,-367 -100,-462 -81,-110 -223,-165 -426,-165 -393,0 -589,255 -589,765l0 1332 -467 0 0 -2442 467 0 0 345c186,-272 435,-408 746,-408 314,0 538,99 672,297 109,166 164,416 164,748l0 1460zm2755 -578c-273,442 -651,663 -1136,663 -375,0 -669,-143 -881,-430 -195,-258 -292,-580 -292,-966 0,-340 110,-624 331,-852 222,-228 502,-342 842,-342 339,0 613,109 820,329 207,219 310,502 310,849 0,21 0,51 0,90 -3,43 -5,75 -5,96l-1821 0c0,230 68,423 202,578 135,156 315,234 541,234 149,0 287,-48 415,-143 116,-85 208,-198 276,-340l398 234zm-462 -913c-60,-407 -276,-611 -648,-611 -403,0 -637,204 -700,611l1348 0zm2389 790c0,206 -80,388 -239,547 -159,159 -344,239 -552,239 -191,0 -365,-46 -521,-138 -166,-95 -284,-230 -355,-403l403 -197c36,89 93,165 173,229 79,63 165,95 257,95 82,0 163,-28 244,-85 82,-56 123,-126 123,-207 0,-141 -94,-271 -282,-387 -173,-100 -348,-200 -525,-303 -188,-138 -282,-304 -282,-499 0,-191 71,-355 213,-491 141,-136 308,-204 499,-204 286,0 507,141 663,424l-377 202c-71,-145 -177,-218 -318,-218 -67,0 -125,26 -173,77 -48,52 -71,111 -71,178 0,103 97,200 292,292 300,145 479,239 536,281 194,149 292,338 292,568zm1444 -1295l-457 0 0 1996 -467 0 0 -1996 -255 0 0 -446 255 0 0 -929 467 0 0 929 457 0 0 446z"/>
   <g>
    <path class="fil1" d="M14434 4890c0,85 -29,156 -85,212 -57,57 -128,85 -213,85 -78,0 -147,-30 -207,-90 -60,-60 -90,-129 -90,-207 0,-85 28,-158 85,-218 57,-60 127,-90 212,-90 89,0 160,29 215,88 55,58 83,131 83,220z"/>
    <path class="fil2" d="M17465 5102l-462 0 0 -398c-227,322 -504,483 -834,483 -353,0 -638,-133 -854,-398 -205,-248 -308,-552 -308,-913 0,-354 106,-656 318,-905 213,-250 494,-374 844,-374 170,0 330,45 481,135 150,90 268,210 353,358l0 -430 462 0 0 2442zm-446 -1237c0,-240 -69,-444 -207,-610 -138,-166 -326,-250 -563,-250 -226,0 -412,88 -557,263 -145,175 -218,378 -218,608 0,226 66,428 196,605 146,195 328,292 547,292 251,0 451,-90 600,-271 135,-166 202,-378 202,-637zm1698 -2309c0,89 -31,163 -95,223 -64,60 -142,90 -234,90 -92,0 -167,-32 -225,-98 -59,-65 -88,-144 -88,-236 0,-85 33,-158 98,-220 66,-62 141,-93 226,-93 96,0 172,32 231,95 58,64 87,144 87,239zm-84 3546l-468 0 0 -2442 468 0 0 2442z"/>
   </g>
  </g>
 </g>
</svg>
